<svg xmlns="http://www.w3.org/2000/svg" width="40.662" height="40.458" viewBox="0 0 40.662 40.458"><g transform="translate(0 -0.261)"><path d="M37.53,60.621a1.013,1.013,0,0,0-1.013,1.013v8.992a3.041,3.041,0,0,1-3.038,3.038H5.064a3.041,3.041,0,0,1-3.038-3.038V44.236A3.042,3.042,0,0,1,5.064,41.2h8.992a1.013,1.013,0,0,0,0-2.025H5.064A5.069,5.069,0,0,0,0,44.236v26.39A5.069,5.069,0,0,0,5.064,75.69H33.479a5.069,5.069,0,0,0,5.064-5.064V61.634a1.013,1.013,0,0,0-1.013-1.013Zm0,0" transform="translate(0 -34.971)" fill="#2166f1"/><path d="M135.375,1.6a4.557,4.557,0,0,0-6.445,0L110.863,19.663a1.012,1.012,0,0,0-.26.446l-2.376,8.578a1.012,1.012,0,0,0,1.246,1.246l8.578-2.376a1.012,1.012,0,0,0,.446-.26L136.563,9.229a4.562,4.562,0,0,0,0-6.445ZM113.069,20.321,127.856,5.534l4.769,4.769L117.838,25.09Zm-.953,1.911,3.81,3.81-5.27,1.46ZM135.131,7.8l-1.074,1.074L129.288,4.1l1.074-1.074a2.532,2.532,0,0,1,3.58,0l1.189,1.188A2.535,2.535,0,0,1,135.131,7.8Zm0,0" transform="translate(-97.234)" fill="#2166f1"/></g></svg>