<svg xmlns="http://www.w3.org/2000/svg" width="37" height="37" viewBox="0 0 37 37"><g transform="translate(0)"><path d="M31.581,5.418A18.5,18.5,0,0,0,5.419,31.582,18.5,18.5,0,0,0,31.581,5.418ZM19.661,26.55h-.077v2.4a1.084,1.084,0,1,1-2.168,0v-2.4h-2.4a1.084,1.084,0,0,1,0-2.168h4.644a2.4,2.4,0,0,0,0-4.8H17.339a4.567,4.567,0,0,1,0-9.134h.077V8.05a1.084,1.084,0,0,1,2.168,0v2.4h2.4a1.084,1.084,0,1,1,0,2.168H17.339a2.4,2.4,0,0,0,0,4.8h2.322a4.567,4.567,0,0,1,0,9.134Z" transform="translate(0)" fill="#231f20"/></g></svg>