<svg xmlns="http://www.w3.org/2000/svg" width="51.797" height="54.275" viewBox="0 0 51.797 54.275"><g transform="translate(-11.687)"><g transform="translate(11.687 3.422)"><g transform="translate(0)"><path d="M44.873,32.377a2.36,2.36,0,0,0-1.326,4.53,21.179,21.179,0,1,1-11.923,0,2.36,2.36,0,0,0-1.326-4.53,25.9,25.9,0,1,0,14.574,0Z" transform="translate(-11.687 -32.281)"/></g></g><g transform="translate(35.226)"><path d="M236.1,0a2.36,2.36,0,0,0-2.36,2.36v16.7a2.36,2.36,0,1,0,4.72,0V2.36A2.36,2.36,0,0,0,236.1,0Z" transform="translate(-233.739)"/></g></g></svg>