<svg xmlns="http://www.w3.org/2000/svg" width="47.772" height="47.772" viewBox="0 0 47.772 47.772"><g transform="translate(-694 -502)"><g transform="translate(694 502)"><rect width="47.772" height="47.772" rx="10" transform="translate(0 0)"/></g><g transform="translate(710 513)"><g transform="translate(1.558 0)" fill="none"><path d="M6.679,0A6.679,6.679,0,1,1,0,6.679,6.679,6.679,0,0,1,6.679,0Z" stroke="none"/><path d="M 6.67861270904541 1.000002861022949 C 3.547412872314453 1.000002861022949 1.000002861022949 3.547412872314453 1.000002861022949 6.67861270904541 C 1.000002861022949 9.809812545776367 3.547412872314453 12.35722255706787 6.67861270904541 12.35722255706787 C 9.809812545776367 12.35722255706787 12.35722255706787 9.809812545776367 12.35722255706787 6.67861270904541 C 12.35722255706787 3.547412872314453 9.809812545776367 1.000002861022949 6.67861270904541 1.000002861022949 M 6.67861270904541 2.86102294921875e-06 C 10.36710262298584 2.86102294921875e-06 13.35722255706787 2.9901123046875 13.35722255706787 6.67861270904541 C 13.35722255706787 10.36710262298584 10.36710262298584 13.35722255706787 6.67861270904541 13.35722255706787 C 2.9901123046875 13.35722255706787 2.86102294921875e-06 10.36710262298584 2.86102294921875e-06 6.67861270904541 C 2.86102294921875e-06 2.9901123046875 2.9901123046875 2.86102294921875e-06 6.67861270904541 2.86102294921875e-06 Z" stroke="none" fill="#fff"/></g><g transform="translate(0 -13.513)" fill="none"><path d="M8.225,29.337c4.543,0,8.225-3.239,8.225,1.3A8.225,8.225,0,1,1,0,30.641C0,26.1,3.683,29.337,8.225,29.337Z" stroke="none"/><path d="M 1.679347991943359 29.21794891357422 C 1.329438209533691 29.21794891357422 1.263168334960938 29.30341720581055 1.234877586364746 29.33992004394531 C 1.164258003234863 29.43100738525391 0.9999980926513672 29.7401008605957 0.9999980926513672 30.64072799682617 C 0.9999980926513672 34.62477874755859 4.241268157958984 37.86605072021484 8.22531795501709 37.86605072021484 C 12.2093677520752 37.86605072021484 15.45063781738281 34.62477874755859 15.45063781738281 30.64072799682617 C 15.45063781738281 29.73986053466797 15.28643798828125 29.4307975769043 15.21584796905518 29.33974075317383 C 15.18757820129395 29.30328750610352 15.12139797210693 29.21791076660156 14.77139759063721 29.21794891357422 C 14.25317764282227 29.21800994873047 13.51139831542969 29.40769958496094 12.65247821807861 29.62734985351563 C 11.41587829589844 29.94358825683594 9.876897811889648 30.33715057373047 8.22531795501709 30.33715057373047 C 6.573667526245117 30.33715057373047 5.034797668457031 29.94358062744141 3.798288345336914 29.62733840942383 C 2.939348220825195 29.40766906738281 2.197547912597656 29.21794891357422 1.679347991943359 29.21794891357422 M 1.679346084594727 28.21794891357422 C 3.181968688964844 28.21794891357422 5.554972648620605 29.33715057373047 8.22531795501709 29.33715057373047 C 10.8953857421875 29.33715057373047 13.26864242553711 28.21811676025391 14.77128982543945 28.21794891357422 C 15.82517242431641 28.21783447265625 16.45063781738281 28.7680778503418 16.45063781738281 30.64072799682617 C 16.45063781738281 35.18344879150391 12.76803779602051 38.86605072021484 8.22531795501709 38.86605072021484 C 3.682598114013672 38.86605072021484 -1.9073486328125e-06 35.18344879150391 -1.9073486328125e-06 30.64072799682617 C -1.9073486328125e-06 28.76835250854492 0.6257467269897461 28.21794891357422 1.679346084594727 28.21794891357422 Z" stroke="none" fill="#fff"/></g></g></g></svg>