<svg xmlns="http://www.w3.org/2000/svg" width="47.77" height="47.77" viewBox="0 0 47.77 47.77"><g transform="translate(-694 -608)"><g transform="translate(694 608)"><g transform="translate(0 0)"><rect width="47.77" height="47.77" rx="10"/></g></g><g transform="translate(710 621)"><g transform="translate(0 5.656)" fill="none"><path d="M1,0H15.16a1,1,0,0,1,1,1V15.16a1,1,0,0,1-1,1H1a1,1,0,0,1-1-1V1A1,1,0,0,1,1,0Z" stroke="none"/><path d="M 1.000001907348633 1.000001907348633 L 1.000001907348633 15.15962219238281 L 15.15962219238281 15.15962219238281 L 15.15962219238281 1.000001907348633 L 1.000001907348633 1.000001907348633 M 1.000001907348633 1.9073486328125e-06 L 15.15962219238281 1.9073486328125e-06 C 15.71191215515137 1.9073486328125e-06 16.15962219238281 0.4477119445800781 16.15962219238281 1.000001907348633 L 16.15962219238281 15.15962219238281 C 16.15962219238281 15.71191215515137 15.71191215515137 16.15962219238281 15.15962219238281 16.15962219238281 L 1.000001907348633 16.15962219238281 C 0.4477119445800781 16.15962219238281 1.9073486328125e-06 15.71191215515137 1.9073486328125e-06 15.15962219238281 L 1.9073486328125e-06 1.000001907348633 C 1.9073486328125e-06 0.4477119445800781 0.4477119445800781 1.9073486328125e-06 1.000001907348633 1.9073486328125e-06 Z" stroke="none" fill="#fff"/></g><g transform="translate(2.424 0)" fill="none"><path d="M6.06,0a6.06,6.06,0,0,1,6.06,6.06c0,.386-12.12.453-12.12,0A6.06,6.06,0,0,1,6.06,0Z" stroke="none"/><path d="M 6.059858322143555 0.9999995231628418 C 3.54383373260498 0.9999995231628418 1.450811386108398 2.846070051193237 1.06398868560791 5.254741668701172 C 1.868621826171875 5.317042827606201 3.376508712768555 5.374789714813232 5.698758125305176 5.374789714813232 C 8.082890510559082 5.374789714813232 10.03730583190918 5.312200546264648 11.0528392791748 5.236958503723145 C 10.65867328643799 2.836898803710938 8.56975269317627 0.9999995231628418 6.059858322143555 0.9999995231628418 M 6.059858322143555 -4.76837158203125e-07 C 9.406628608703613 -4.76837158203125e-07 12.11971855163574 2.71308970451355 12.11971855163574 6.059859752655029 C 12.11971855163574 6.26038646697998 8.843938827514648 6.374785900115967 5.698760509490967 6.374785900115967 C 2.79361629486084 6.374785900115967 -1.9073486328125e-06 6.277239322662354 -1.9073486328125e-06 6.059859752655029 C -1.9073486328125e-06 2.71308970451355 2.713088035583496 -4.76837158203125e-07 6.059858322143555 -4.76837158203125e-07 Z" stroke="none" fill="#fff"/></g><path d="M0,6.464,1.281,3.9a2.02,2.02,0,1,1,1.477,0L4.04,6.464Z" transform="translate(6.464 10.504)" fill="#fff"/></g></g></svg>