<svg xmlns="http://www.w3.org/2000/svg" width="32.487" height="40" viewBox="0 0 32.487 40"><g transform="translate(0.003 0.001)"><path d="M223.335,154.7a.937.937,0,0,0-.937.937v17.7a.937.937,0,1,0,1.874,0v-17.7A.937.937,0,0,0,223.335,154.7Zm0,0" transform="translate(-201.567 -140.212)" fill="red"/><path d="M105.335,154.7a.937.937,0,0,0-.937.937v17.7a.937.937,0,0,0,1.874,0v-17.7A.937.937,0,0,0,105.335,154.7Zm0,0" transform="translate(-94.621 -140.212)" fill="red"/><path d="M2.657,11.907v23.08a5.168,5.168,0,0,0,1.374,3.564A4.613,4.613,0,0,0,7.378,40H25.1a4.612,4.612,0,0,0,3.347-1.447,5.168,5.168,0,0,0,1.374-3.564V11.907a3.578,3.578,0,0,0-.918-7.037h-4.8V3.7A3.68,3.68,0,0,0,20.4,0H12.081a3.68,3.68,0,0,0-3.71,3.7V4.87h-4.8a3.578,3.578,0,0,0-.918,7.037ZM25.1,38.125H7.378a2.967,2.967,0,0,1-2.848-3.138v-23H27.95v23A2.967,2.967,0,0,1,25.1,38.125ZM10.245,3.7a1.8,1.8,0,0,1,1.836-1.827H20.4A1.8,1.8,0,0,1,22.236,3.7V4.87H10.245ZM3.575,6.743h25.33a1.686,1.686,0,1,1,0,3.372H3.575a1.686,1.686,0,1,1,0-3.372Zm0,0" transform="translate(0 0)" fill="red"/><path d="M164.335,154.7a.937.937,0,0,0-.937.937v17.7a.937.937,0,0,0,1.874,0v-17.7A.937.937,0,0,0,164.335,154.7Zm0,0" transform="translate(-148.094 -140.212)" fill="red"/></g></svg>