<svg xmlns="http://www.w3.org/2000/svg" width="540" height="216" viewBox="0 0 540 216"><g transform="translate(-690.5 -280)"><g transform="translate(852 280)" fill="none" stroke="#fff" stroke-width="2.5"><circle cx="108" cy="108" r="108" stroke="none"/><circle cx="108" cy="108" r="106.75" fill="none"/></g><g transform="translate(920 317)" fill="none"><path d="M40.068,0A40.068,40.068,0,1,1,0,40.068,40.068,40.068,0,0,1,40.068,0Z" stroke="none"/><path d="M 40.067626953125 1.499992370605469 C 34.86037063598633 1.499992370605469 29.80966949462891 2.519508361816406 25.05582809448242 4.53021240234375 C 20.46339416503906 6.472648620605469 16.33866119384766 9.25372314453125 12.79619598388672 12.79619598388672 C 9.25372314453125 16.33866119384766 6.472648620605469 20.46339416503906 4.53021240234375 25.05582809448242 C 2.519508361816406 29.80966949462891 1.499992370605469 34.86037063598633 1.499992370605469 40.067626953125 C 1.499992370605469 45.27488327026367 2.519508361816406 50.32558441162109 4.53021240234375 55.07942962646484 C 6.472648620605469 59.67184829711914 9.25372314453125 63.79658508300781 12.79619598388672 67.33905029296875 C 16.33866119384766 70.88151550292969 20.46339416503906 73.66259765625 25.05582809448242 75.60502624511719 C 29.80966949462891 77.61573791503906 34.86037063598633 78.63524627685547 40.067626953125 78.63524627685547 C 45.27488327026367 78.63524627685547 50.32558441162109 77.61573791503906 55.07942962646484 75.60502624511719 C 59.67184829711914 73.66259765625 63.79658508300781 70.88151550292969 67.33905029296875 67.33905029296875 C 70.88151550292969 63.79658508300781 73.66259765625 59.67184829711914 75.60502624511719 55.07942962646484 C 77.61573791503906 50.32558441162109 78.63524627685547 45.27488327026367 78.63524627685547 40.067626953125 C 78.63524627685547 34.86037063598633 77.61573791503906 29.80966949462891 75.60502624511719 25.05582809448242 C 73.66259765625 20.46339416503906 70.88151550292969 16.33866119384766 67.33905029296875 12.79619598388672 C 63.79658508300781 9.25372314453125 59.67184829711914 6.472648620605469 55.07942962646484 4.53021240234375 C 50.32558441162109 2.519508361816406 45.27488327026367 1.499992370605469 40.067626953125 1.499992370605469 M 40.067626953125 -7.62939453125e-06 C 62.19635772705078 -7.62939453125e-06 80.13524627685547 17.93888092041016 80.13524627685547 40.067626953125 C 80.13524627685547 62.19635772705078 62.19635772705078 80.13524627685547 40.067626953125 80.13524627685547 C 17.93888092041016 80.13524627685547 -7.62939453125e-06 62.19635772705078 -7.62939453125e-06 40.067626953125 C -7.62939453125e-06 17.93888092041016 17.93888092041016 -7.62939453125e-06 40.067626953125 -7.62939453125e-06 Z" stroke="none" fill="#fff"/></g><g transform="translate(910.653 377)" fill="none"><path d="M49.347,34.932c27.254,0,49.347-19.433,49.347,7.821A49.347,49.347,0,1,1,0,42.753C0,15.5,22.093,34.932,49.347,34.932Z" stroke="none"/><path d="M 88.62083435058594 28.21794891357422 L 88.61897277832031 29.71794891357422 C 84.94403839111328 29.71836090087891 80.23964691162109 30.92140197753906 74.79243469238281 32.31439971923828 C 67.24435424804688 34.24465942382813 58.68918228149414 36.43245697021484 49.34694290161133 36.43245697021484 C 40.00434112548828 36.43245697021484 31.44982147216797 34.24462890625 23.90231323242188 32.31436157226563 C 18.45482635498047 30.92116546630859 13.75020599365234 29.71794891357422 10.0750732421875 29.71794891357422 C 7.138595581054688 29.71794891357422 5.161369323730469 30.50416564941406 3.852622985839844 32.19221496582031 C 2.269546508789063 34.23410797119141 1.5 37.68862915039063 1.5 42.75315093994141 C 1.5 49.21310806274414 2.764846801757813 55.47904205322266 5.259437561035156 61.37688446044922 C 7.669219970703125 67.07427978515625 11.11936950683594 72.19139099121094 15.5140380859375 76.5860595703125 C 19.90870666503906 80.98072052001953 25.02581024169922 84.43087005615234 30.72321319580078 86.84065246582031 C 36.62104797363281 89.33524322509766 42.88698196411133 90.60009765625 49.34694290161133 90.60009765625 C 55.80690383911133 90.60009765625 62.07282257080078 89.33524322509766 67.97067260742188 86.84065246582031 C 73.66807556152344 84.43087005615234 78.78518676757813 80.98072052001953 83.17984008789063 76.5860595703125 C 87.57450103759766 72.19139099121094 91.02466583251953 67.07427978515625 93.4344482421875 61.37688446044922 C 95.92903900146484 55.47904205322266 97.19389343261719 49.21310806274414 97.19389343261719 42.75315093994141 C 97.19389343261719 37.68775939941406 96.42474365234375 34.2330322265625 94.84250640869141 32.19153594970703 C 94.17091369628906 31.32502746582031 93.34439849853516 30.70832061767578 92.31570434570313 30.30620574951172 C 91.30293273925781 29.91029357910156 90.09434509277344 29.71788024902344 88.62091827392578 29.71794891357422 L 88.62083435058594 28.21794891357422 M 10.0750732421875 28.21794891357422 C 19.08989715576172 28.21794891357422 33.32648468017578 34.93245697021484 49.34694290161133 34.93245697021484 C 65.36573028564453 34.93245697021484 79.60383605957031 28.21894836425781 88.61881256103516 28.21794891357422 C 94.94146728515625 28.21724700927734 98.69388580322266 31.51837158203125 98.69388580322266 42.75315093994141 C 98.69388580322266 70.00672149658203 76.60050201416016 92.10009765625 49.34694290161133 92.10009765625 C 22.09336853027344 92.10009765625 0 70.00672149658203 0 42.75315093994141 C 0 31.52003479003906 3.754112243652344 28.21794891357422 10.0750732421875 28.21794891357422 Z" stroke="none" fill="#fff"/></g><line x1="162" transform="translate(690.5 388.5)" fill="none" stroke="#fff" stroke-width="2.5"/><line x1="162" transform="translate(1068.5 388.5)" fill="none" stroke="#fff" stroke-width="2.5"/></g></svg>